<svg xmlns="http://www.w3.org/2000/svg" data-name="12" viewBox="0 0 800 600"><path fill="#ffc5cb" d="m173.55 165.16 1.12-3.39a17.23 17.23 0 0 0 4-1.17l2.77 2.24a1.71 1.71 0 0 0 2.15 0l3.49-2.81a1.71 1.71 0 0 0 .45-2.1l-1.6-3.19a17.23 17.23 0 0 0 2-3.65l3.55-.37a1.71 1.71 0 0 0 1.52-1.52l.48-4.46a1.71 1.71 0 0 0-1.16-1.81l-3.39-1.12a17.23 17.23 0 0 0-1.17-4l2.24-2.77a1.71 1.71 0 0 0 0-2.15l-2.81-3.49a1.71 1.71 0 0 0-2.1-.45l-3.19 1.6a17.23 17.23 0 0 0-3.65-2l-.37-3.55a1.71 1.71 0 0 0-1.52-1.52l-4.46-.48a1.71 1.71 0 0 0-1.81 1.16L169 127.6a17.23 17.23 0 0 0-4 1.17l-2.77-2.24a1.71 1.71 0 0 0-2.15 0l-3.49 2.81a1.71 1.71 0 0 0-.45 2.1l1.6 3.19a17.23 17.23 0 0 0-2 3.65l-3.55.37a1.71 1.71 0 0 0-1.52 1.52l-.48 4.46a1.71 1.71 0 0 0 1.16 1.81l3.39 1.12a17.23 17.23 0 0 0 1.17 4l-2.24 2.77a1.71 1.71 0 0 0 0 2.15l2.81 3.49a1.71 1.71 0 0 0 2.1.45l3.19-1.6a17.23 17.23 0 0 0 3.65 2l.37 3.55a1.71 1.71 0 0 0 1.52 1.52l4.46.48a1.71 1.71 0 0 0 1.78-1.21Zm-10.93-21.46a9.24 9.24 0 1 1 8.2 10.17 9.24 9.24 0 0 1-8.2-10.17Z"/><path fill="#6b6ce3" d="m203.38 131.9.57-1.73a8.81 8.81 0 0 0 2-.6l1.42 1.15a.87.87 0 0 0 1.1 0l1.79-1.44a.87.87 0 0 0 .23-1.07l-.82-1.63a8.81 8.81 0 0 0 1-1.87l1.81-.19a.88.88 0 0 0 .78-.78l.24-2.28a.88.88 0 0 0-.6-.92l-1.73-.57a8.81 8.81 0 0 0-.6-2l1.15-1.42a.87.87 0 0 0 0-1.1l-1.44-1.79a.87.87 0 0 0-1.07-.23l-1.63.82a8.81 8.81 0 0 0-1.87-1l-.19-1.81a.88.88 0 0 0-.78-.78l-2.28-.24a.88.88 0 0 0-.92.6l-.57 1.73a8.81 8.81 0 0 0-2 .6l-1.42-1.15a.87.87 0 0 0-1.1 0l-1.79 1.44a.87.87 0 0 0-.23 1.07l.82 1.63a8.81 8.81 0 0 0-1 1.87l-1.81.19a.88.88 0 0 0-.78.78l-.24 2.28a.88.88 0 0 0 .6.92l1.73.57a8.81 8.81 0 0 0 .6 2l-1.15 1.42a.87.87 0 0 0 0 1.1l1.44 1.79a.87.87 0 0 0 1.07.23l1.63-.82a8.81 8.81 0 0 0 1.87 1l.19 1.81a.88.88 0 0 0 .78.78l2.28.24a.88.88 0 0 0 .92-.6Zm-5.59-11a4.73 4.73 0 1 1 4.2 5.2 4.73 4.73 0 0 1-4.2-5.18Z"/><path fill="#fff" stroke="#011859" stroke-miterlimit="10" stroke-width=".5" d="M135.07 395.03h172.5v106.33h-172.5z"/><path fill="#fff" stroke="#9c92dc" stroke-miterlimit="10" d="M135.07 148.84h86.25v246.19h-86.25z"/><path fill="#fff" stroke="#9c92dc" stroke-miterlimit="10" d="M221.31 148.84h86.25v246.19h-86.25z"/><path fill="#ff9d9c" d="M590.34 381.31h50.91v108.75h-50.91zM481.32 486.66a.38.38 0 0 1-.56 0c-20.74-9-33.59-18.23-31.84-62.8 0 0 21.5.34 31.84-12.21.09-.11.19-.23.28-.36.09.12.19.25.28.36 10.35 12.55 31.84 12.21 31.84 12.21 1.75 44.57-11.09 53.84-31.84 62.8Z"/><path fill="#ffc5cb" d="M481.32 486.66a2.21 2.21 0 0 1-.28.12v-75.49c.09.12.19.25.28.36 10.35 12.55 31.84 12.21 31.84 12.21 1.75 44.57-11.09 53.84-31.84 62.8Z"/><path fill="#fff" d="M494 445.37h-.24v-5.42a12.77 12.77 0 0 0-25.54 0v5.42H468a2.34 2.34 0 0 0-2.33 2.41l.62 18.45a2.34 2.34 0 0 0 2.33 2.26h24.76a2.34 2.34 0 0 0 2.33-2.26l.62-18.45a2.34 2.34 0 0 0-2.33-2.41Zm-21-5.42a8 8 0 0 1 15.94 0v5.42h-15.87Z"/><path fill="#6b6ce3" d="M549.08 357.06c-.25.65-.54 1.3-.84 1.92a27.18 27.18 0 0 1-8.24 10.17c-6.31 4.49-14.28 10.53-18.16 14.77-.25.27-.49.54-.7.8-.21-.26-.45-.53-.7-.8-3.88-4.23-11.85-10.27-18.15-14.77a28 28 0 0 1-9.47-13.07c-.23-.63-.43-1.27-.6-1.92-1.76-6.41-1.16-13.65 4-19.89 7.51-9 22.19-2.95 24.9 4.67 2.71-7.61 17.4-13.69 24.9-4.67 5.98 7.2 5.87 15.73 3.06 22.79Z"/><path fill="#fff" d="M549.08 357.06c-.25.65-.54 1.3-.84 1.92h-16.72l-2.44-5.2-6.23 13.92-4.13-17.39-4.64 10.6-4.58-8.61-2.08 3.79h-14.61c-.23-.63-.43-1.27-.6-1.92h14.08l3.26-5.91 4.38 8.24 5.36-12.22 4.14 17.47 5.57-12.59 3.7 7.89Z"/><rect width="174.09" height="130.67" x="413.81" y="103.18" fill="#fff" stroke="#9c92dc" stroke-miterlimit="10" rx="6.89" ry="6.89"/><path fill="#d0dafd" stroke="#9c92dc" stroke-miterlimit="10" d="M464 117.51v116.35h-43.3a6.89 6.89 0 0 1-6.89-6.89V117.51Z"/><path fill="#9c92dc" d="M587.9 110.08v7.43H413.81v-7.43a6.89 6.89 0 0 1 6.89-6.89H581a6.89 6.89 0 0 1 6.9 6.89Z"/><path fill="#ff8e00" d="M371.66 474c0 .35.58 27.36.58 27.36h59.13s-.81-8.12-23.77-22.84l-6.72-18.78ZM328.21 437.05 307.56 453l25.93 46.42s11.07-12.19 9.27-27c-.45-3.65 2.94-10.6 6.06-15.59s-20.61-19.78-20.61-19.78Z"/><path fill="#011859" d="M353.7 230.87a107.15 107.15 0 0 0 1.3 25.61c1.7 10 5.19 21.26 12.13 30.58 16.72 22.47 36.4 45.12 46.43 60.73s20.81 31.1-19.21 73.35c-14.41 15.21-39.8 45.29-39.8 45.29l-28.21-31.5s50.78-53.36 53.36-61.12.47-9.4-11.28-19.74-46.85-45.32-50.69-52.53c-2-3.8-4.9-21.17-7.15-36.75-2-14-3.56-26.47-3.56-26.47s-14.46-22.13-10.41-34.73c5.92-18.4 19.24-13.65 29.72-21.13l17.94 3.67c.34.08 4.94.14 6.25 1.39s19.49 29.68 27.38 38.22 56.07 59.79 58.17 61.31c0 0-5.71 11.83-19.17 7.37-.03.01-41.72-49.3-63.2-63.55Z"/><path fill="#011859" d="M314.12 287.06c3.25 18.62 21.42 78.12 27.55 97.43s28.62 92.66 28.62 92.66l36.11-14.08s-26.35-85.4-33.16-112-15.66-51.91-14.24-57.88c2.13-8.91-3-21.21-3-21.21Z"/><g opacity=".5"><circle cx="344.4" cy="281.72" r="3.07" fill="none" stroke="#fff" stroke-miterlimit="10" stroke-width=".75"/><circle cx="346.36" cy="299.47" r="3.07" fill="none" stroke="#fff" stroke-miterlimit="10" stroke-width=".75"/><circle cx="338.22" cy="337.49" r="3.07" fill="none" stroke="#fff" stroke-miterlimit="10" stroke-width=".75"/><circle cx="326.66" cy="271.93" r="3.07" fill="none" stroke="#fff" stroke-miterlimit="10" stroke-width=".75"/><circle cx="331.4" cy="314.84" r="3.07" fill="none" stroke="#fff" stroke-miterlimit="10" stroke-width=".75"/><circle cx="357.63" cy="327.53" r="3.07" fill="none" stroke="#fff" stroke-miterlimit="10" stroke-width=".75"/><circle cx="395.6" cy="341.18" r="3.07" fill="none" stroke="#fff" stroke-miterlimit="10" stroke-width=".75"/><circle cx="392.25" cy="386.16" r="3.07" fill="none" stroke="#fff" stroke-miterlimit="10" stroke-width=".75"/><circle cx="397.62" cy="408.22" r="3.07" fill="none" stroke="#fff" stroke-miterlimit="10" stroke-width=".75"/><circle cx="375.7" cy="314.84" r="3.07" fill="none" stroke="#fff" stroke-miterlimit="10" stroke-width=".75"/><circle cx="371.44" cy="368.88" r="3.07" fill="none" stroke="#fff" stroke-miterlimit="10" stroke-width=".75"/><circle cx="410.8" cy="355.62" r="3.07" fill="none" stroke="#fff" stroke-miterlimit="10" stroke-width=".75"/><circle cx="414.6" cy="378.92" r="3.07" fill="none" stroke="#fff" stroke-miterlimit="10" stroke-width=".75"/><circle cx="361.54" cy="419.7" r="3.07" fill="none" stroke="#fff" stroke-miterlimit="10" stroke-width=".75"/><circle cx="364.61" cy="389.82" r="3.07" fill="none" stroke="#fff" stroke-miterlimit="10" stroke-width=".75"/><circle cx="376.31" cy="437.05" r="3.07" fill="none" stroke="#fff" stroke-miterlimit="10" stroke-width=".75"/><circle cx="385.94" cy="421.42" r="3.07" fill="none" stroke="#fff" stroke-miterlimit="10" stroke-width=".75"/><circle cx="392.95" cy="445.37" r="3.07" fill="none" stroke="#fff" stroke-miterlimit="10" stroke-width=".75"/><circle cx="350.54" cy="374.56" r="3.07" fill="none" stroke="#fff" stroke-miterlimit="10" stroke-width=".75"/><circle cx="355.78" cy="347" r="3.07" fill="none" stroke="#fff" stroke-miterlimit="10" stroke-width=".75"/><circle cx="381.52" cy="354.17" r="3.07" fill="none" stroke="#fff" stroke-miterlimit="10" stroke-width=".75"/></g><path fill="#c3e6e6" d="M436 287.06s-5.71 11.83-19.17 7.37c0 0-41.69-49.31-63.17-63.56a107.15 107.15 0 0 0 1.34 25.61 99.13 99.13 0 0 1-16.32 4.42c-5.65 1.11-11.55 2-17 2.68-4.1.52-7.92.92-11.14 1.23-2-14-3.56-26.47-3.56-26.47s-14.46-22.13-10.41-34.73c5.33-16.55 16.64-14.37 26.48-19.21a22.85 22.85 0 0 0 3.24-1.91l17.94 3.67c.29.07 3.6.12 5.42.89a2.68 2.68 0 0 1 .84.5c1.31 1.25 19.49 29.68 27.38 38.22s56.06 59.78 58.13 61.29Z"/><path fill="#90d6d4" d="M368.3 213.37c-.7.37-1.14 18.34 13 21.22l-3.62-23.28Z"/><path fill="none" stroke="#fff" stroke-miterlimit="10" stroke-width=".75" d="M315.87 200.07v-3.29l-2.85-1.65-2.85 1.65v3.29l2.85 1.64 2.85-1.64zM307.56 210.41v-3.29l-2.85-1.65-2.84 1.65v3.29l2.84 1.64 2.85-1.64zM376.68 232.38v-3.29l-2.85-1.64-2.85 1.64v3.29l2.85 1.65 2.85-1.65zM361.26 228.31v-3.29l-2.85-1.64-2.85 1.64v3.29l2.85 1.65 2.85-1.65zM335.12 215.53v-3.29l-2.85-1.65-2.84 1.65v3.29l2.84 1.64 2.85-1.64zM358.8 207.12v-3.29l-2.85-1.65-2.85 1.65v3.29l2.85 1.64 2.85-1.64zM347.08 220v-3.28l-2.84-1.65-2.85 1.65V220l2.85 1.65 2.84-1.65zM349.43 243.71v-3.29l-2.85-1.64-2.84 1.64v3.29l2.84 1.65 2.85-1.65zM385.96 248.52v-3.29l-2.85-1.65-2.85 1.65v3.29l2.85 1.64 2.85-1.64zM424.3 282.55v-3.29l-2.85-1.64-2.85 1.64v3.29l2.85 1.65 2.85-1.65z"/><path fill="none" stroke="#011859" stroke-miterlimit="10" stroke-width=".75" d="M352.21 205.29s.2 11.4.89 12.58"/><path fill="#6b6ce3" d="M483.7 252.16a103.58 103.58 0 0 0-145.9-30.65 8.76 8.76 0 1 0 9.83 14.5 86.07 86.07 0 0 1 121.23 25.48 8.76 8.76 0 1 0 14.83-9.31ZM403.16 273a46.57 46.57 0 0 0-38.24 8.82 8.76 8.76 0 0 0 10.75 13.82 29.17 29.17 0 0 1 43.54 9.15 8.76 8.76 0 1 0 15.4-8.33A46.57 46.57 0 0 0 403.16 273ZM396.5 304.66a17.26 17.26 0 1 0 12.5 10.69 17.24 17.24 0 0 0-12.5-10.69Z"/><path fill="#6b6ce3" d="M410.36 238.7a76 76 0 0 0-59.3 12.3 8.76 8.76 0 0 0 10.1 14.3 58.27 58.27 0 0 1 83.53 17.55 8.76 8.76 0 1 0 15-9 76 76 0 0 0-49.33-35.15Z"/><path fill="#90d6d4" d="M339.21 259.72a11.16 11.16 0 0 1-.54 1.17c-5.65 1.11-11.55 2-17 2.68-5.93-6.4-7.59-19.84-7.57-20l11.34 3.26ZM325.08 190.67s.4 21.13 4.16 17.93c2-1.7 9.21-9 9.73-9s6.5 8.58 8.38 6.6 1.42-15.94 1.42-15.94Z"/><path fill="#fff" d="m349.65 187-3.9 14.15s-4.16-5-7.28-4.72-9 7.13-9 7.13-6.63-19.12-6.44-19.21a22.85 22.85 0 0 0 3.24-1.91l17.94 3.67c.31.1 3.63.16 5.44.89Z"/><path fill="#c3e6e6" d="M444.26 262.8c-1.44.24-18.44.78-18.54 1.38s10.56 1.57 14.7 2.28 2.88 2.88 1.27 3-16.15-.24-15.67.84 10.56 1.44 11.23 3.54-1.85 2-8.58 1-33.29-4.68-33.29-4.68c-2.54.12-5 .21-7.38.28-2.22.06-4.38.09-6.46.1-45.45.13-60.1-12.1-74.53-32.24-7.64-14.2 14.06-37.71 15.09-27 .61 6.43 5.67 17.31 11.38 25.75 3.76 5.58 7.82 10.09 11.06 11.57 2.89 1.32 8.55 2.28 15.2 2.82 12.16 1 27.62.63 35.45-1.38 12.12-3.12 20.94-11 21.55-11.4s2.57.78 1.2 4.86-7.94 6.68-7.94 6.68 21.9-.18 27.18-.12 2.71 3.3 1.21 3.54-15.25 3.12-14.94 4.68 13.62.85 18.36 1.27 3.89 2.99 2.45 3.23Z"/><path fill="#90d6d4" d="M388 255.36v15.11c-2.22.06-4.38.09-6.46.1 1.87-4.69 6.46-15.21 6.46-15.21ZM359.72 251.46a21.75 21.75 0 0 1-15.48 1.81c-8.51-2-10.38-12.31-10.78-16.21 3.76 5.58 7.82 10.09 11.06 11.57 2.89 1.32 8.54 2.28 15.2 2.83Z"/><path fill="none" stroke="#011859" stroke-miterlimit="10" stroke-width=".75" d="M307 238.33c5.11 7.13 10.25 13.27 16.78 18.22M338.45 243.59c-7.43-8.34-15.59-24-16.38-32.28"/><path fill="#ff9d9c" d="M444.26 262.8c-1.44.24-18.44.78-18.54 1.38s10.56 1.57 14.7 2.28 2.88 2.88 1.27 3-16.15-.24-15.67.84 10.56 1.44 11.23 3.54-1.85 2-8.58 1-33.29-4.68-33.29-4.68h-.82v-20l.61-.15c12.12-3.12 20.94-11 21.55-11.4s2.57.78 1.2 4.86-7.92 6.73-7.92 6.73 21.9-.18 27.18-.12 2.71 3.3 1.21 3.54-15.25 3.12-14.94 4.68 13.62.85 18.36 1.27 3.89 2.99 2.45 3.23Z"/><path fill="#011859" d="M326.22 160.28c-11.63-4.48-12-16.92-2.56-18.73 0 0-3.54-2.79-2.06-4.94s6.65 2.85 7.29 3.9c0 0 7.68-9.6 17-11.52s14.31 9.19 5.41 15.46l-5.3 10.47Z"/><path fill="#ff9d9c" d="M352.91 178.1a15.14 15.14 0 0 1-3.46.25 22.23 22.23 0 0 1-5.19-.84 20.67 20.67 0 0 0 0 8.62v.12l-6 8.45c-2.33-1.84-11.95-12.24-11.95-12.24 1-1.84 4.56-15.34 4.56-15.34s-4.76 1.39-7.38-2.24c-3.52-4.87 2.33-10 8.07-6.89 0 0 1.55-4.61-.09-8 0 0 12.73.86 19.7-5.33 13.4 26.45 6.6 32.47 1.74 33.44Z"/><path fill="#e44543" d="M344.27 177.52a20.67 20.67 0 0 0 0 8.62c-6.35-1.74-7.79-12.85-7.85-13.26a18.6 18.6 0 0 0 8.51 4.81Z"/><circle cx="221.31" cy="455.24" r="24.53" fill="#ffc5cb"/><path fill="#fff" d="M237.28 449.21a22.19 22.19 0 0 0-31.93 0 1.88 1.88 0 0 0 2.7 2.61 18.43 18.43 0 0 1 26.53 0 1.88 1.88 0 1 0 2.7-2.61ZM221.31 457.12a10 10 0 0 0-7.63 3.53 1.88 1.88 0 0 0 2.86 2.42 6.25 6.25 0 0 1 9.53 0 1.88 1.88 0 1 0 2.86-2.42 10 10 0 0 0-7.62-3.53ZM221.31 464a3.7 3.7 0 1 0 3.1 1.69 3.69 3.69 0 0 0-3.1-1.69Z"/><path fill="#fff" d="M221.31 449.61a16.28 16.28 0 0 0-11.89 5.18 1.88 1.88 0 1 0 2.75 2.55 12.48 12.48 0 0 1 18.28 0 1.88 1.88 0 1 0 2.75-2.55 16.28 16.28 0 0 0-11.89-5.18Z"/><rect width="32.42" height="63.88" x="622.18" y="225.15" fill="#ffc5cb" rx="3.77" ry="3.77"/><path fill="#ff9d9c" d="M651.23 222.92h-25.69a5.6 5.6 0 0 0-5.59 5.59v57.15a5.6 5.6 0 0 0 5.59 5.6h25.69a5.6 5.6 0 0 0 5.59-5.6v-57.15a5.6 5.6 0 0 0-5.59-5.59Zm1.13 62.75a1.14 1.14 0 0 1-1.13 1.13h-25.69a1.14 1.14 0 0 1-1.13-1.13v-57.16a1.14 1.14 0 0 1 1.13-1.13h6.76l.74 2.51h10.7l.74-2.51h6.76a1.14 1.14 0 0 1 1.13 1.13Z"/><path fill="#fff" d="M648.46 252.21a14 14 0 0 0-20.14 0 1.18 1.18 0 1 0 1.7 1.64 11.63 11.63 0 0 1 16.74 0 1.18 1.18 0 0 0 1.7-1.64ZM638.39 257.2a6.29 6.29 0 0 0-4.81 2.23 1.18 1.18 0 0 0 1.81 1.53 3.94 3.94 0 0 1 6 0 1.18 1.18 0 0 0 1.81-1.53 6.29 6.29 0 0 0-4.81-2.23ZM638.39 261.58a2.33 2.33 0 1 0 2 1.06 2.33 2.33 0 0 0-2-1.06Z"/><path fill="#fff" d="M638.39 252.47a10.27 10.27 0 0 0-7.5 3.27 1.18 1.18 0 0 0 1.73 1.61 7.87 7.87 0 0 1 11.53 0 1.18 1.18 0 0 0 1.73-1.61 10.27 10.27 0 0 0-7.49-3.27Z"/><path fill="#6b6ce3" d="M483.66 452.69a2.62 2.62 0 1 0-4 2.22l-.26 4.13a1.29 1.29 0 0 0 1.29 1.37h.72a1.29 1.29 0 0 0 1.29-1.37l-.26-4.13a2.61 2.61 0 0 0 1.22-2.22Z"/><path fill="none" stroke="#ffc5cb" stroke-miterlimit="10" stroke-width="2" d="M601.14 201.4h2.5"/><path fill="none" stroke="#ffc5cb" stroke-dasharray="4.61 4.61" stroke-miterlimit="10" stroke-width="2" d="M608.25 201.4h25.33"/><path fill="none" stroke="#ffc5cb" stroke-miterlimit="10" stroke-width="2" d="M635.89 201.4h2.5v-2.5"/><path fill="none" stroke="#ffc5cb" stroke-dasharray="4.15 4.15" stroke-miterlimit="10" stroke-width="2" d="M638.39 194.75v-14.52"/><path fill="none" stroke="#ffc5cb" stroke-miterlimit="10" stroke-width="2" d="M638.39 178.15v-2.5M565.15 246.1v2.5"/><path fill="none" stroke="#ffc5cb" stroke-dasharray="4.83 4.83" stroke-miterlimit="10" stroke-width="2" d="M565.15 253.43v7.24"/><path fill="none" stroke="#ffc5cb" stroke-miterlimit="10" stroke-width="2" d="M565.15 263.08v2.5h2.5"/><path fill="none" stroke="#ffc5cb" stroke-dasharray="5.04 5.04" stroke-miterlimit="10" stroke-width="2" d="M572.69 265.58h27.7"/><path fill="none" stroke="#ffc5cb" stroke-miterlimit="10" stroke-width="2" d="M602.91 265.58h2.5M542.87 246.1v2.5"/><path fill="none" stroke="#ffc5cb" stroke-dasharray="4.76 4.76" stroke-miterlimit="10" stroke-width="2" d="M542.87 253.36v45.19"/><path fill="none" stroke="#ffc5cb" stroke-miterlimit="10" stroke-width="2" d="M542.87 300.93v2.5h2.5"/><path fill="none" stroke="#ffc5cb" stroke-dasharray="5.33 5.33" stroke-miterlimit="10" stroke-width="2" d="M550.7 303.43h61.24"/><path fill="none" stroke="#ffc5cb" stroke-miterlimit="10" stroke-width="2" d="M614.6 303.43h2.5v2.5"/><path fill="none" stroke="#ffc5cb" stroke-dasharray="5.36 5.36" stroke-miterlimit="10" stroke-width="2" d="M617.1 311.29v50.95"/><path fill="none" stroke="#ffc5cb" stroke-miterlimit="10" stroke-width="2" d="M617.1 364.92v2.5"/><path fill="#ffc5cb" d="M567.28 424.51h46.12v65.55h-46.12z"/><path fill="#6b6ce3" d="M582.44 464.41h15.8v25.65h-15.8zM563.38 418.32h53.92v6.19h-53.92z"/><path fill="#fff" d="M574.65 434.15h12.73v8.74h-12.73zM593.31 434.15h12.73v8.74h-12.73zM574.65 446.49h12.73v8.74h-12.73zM593.31 446.49h12.73v8.74h-12.73zM596.2 390.65h9.75v8.74h-9.75zM596.2 402.99h9.75v8.74h-9.75zM610.92 390.65h9.75v8.74h-9.75zM610.92 402.99h9.75v8.74h-9.75zM625.64 390.65h9.75v8.74h-9.75zM625.64 402.99h9.75v8.74h-9.75zM549.08 357.06c-.25.65-.54 1.3-.84 1.92h-16.72l-2.44-5.2-6.23 13.92-4.13-17.39-4.64 10.6-4.58-8.61-2.08 3.79h-14.61c-.23-.63-.43-1.27-.6-1.92h14.08l3.26-5.91 4.38 8.24 5.36-12.22 4.14 17.47 5.57-12.59 3.7 7.89Z"/><path fill="none" stroke="#ffc5cb" stroke-miterlimit="10" stroke-width="2" d="M499.5 246.1v2.5"/><path fill="none" stroke="#ffc5cb" stroke-dasharray="4.79 4.79" stroke-miterlimit="10" stroke-width="2" d="M499.5 253.4v35.95"/><path fill="none" stroke="#ffc5cb" stroke-miterlimit="10" stroke-width="2" d="M499.5 291.75v2.5H497"/><path fill="none" stroke="#ffc5cb" stroke-dasharray="5.33 5.33" stroke-miterlimit="10" stroke-width="2" d="M491.66 294.25h-18.67"/><path fill="none" stroke="#ffc5cb" stroke-miterlimit="10" stroke-width="2" d="M470.32 294.25h-2.5v2.5"/><path fill="none" stroke="#ffc5cb" stroke-dasharray="4.88 4.88" stroke-miterlimit="10" stroke-width="2" d="M467.83 301.63v85.43"/><path fill="none" stroke="#ffc5cb" stroke-miterlimit="10" stroke-width="2" d="M467.83 389.5v2.5M521.39 246.1v2.5"/><path fill="none" stroke="#ffc5cb" stroke-dasharray="4.81 4.81" stroke-miterlimit="10" stroke-width="2" d="M521.39 253.41v55.28"/><path fill="none" stroke="#ffc5cb" stroke-miterlimit="10" stroke-width="2" d="M521.39 311.09v2.5"/><path fill="none" stroke="#011859" stroke-miterlimit="10" stroke-width=".75" d="M335.12 171.24a8.05 8.05 0 0 0 1.27 1.63 18.6 18.6 0 0 0 8.51 4.81M349.36 157.14a20.83 20.83 0 0 0 4.26 4.6A14 14 0 0 1 351 166"/><ellipse cx="343.06" cy="158.42" fill="#011859" rx="1.22" ry="1.84" transform="rotate(-9.01 342.871 158.363)"/><ellipse cx="352.91" cy="154.89" fill="#011859" rx="1.04" ry="1.57" transform="rotate(-9.01 352.73 154.797)"/><path fill="none" stroke="#fff" stroke-miterlimit="10" d="M373.24 351.1c-6.81-26.57-15.66-51.94-14.23-57.91a20.62 20.62 0 0 0 .51-4.69"/><path fill="none" stroke="#011859" stroke-miterlimit="10" stroke-width=".75" d="M403.23 480.09c1.56-6.66 9.79-14.89 13.12-14.62s-11.69 14.35-11.69 14.35"/><path fill="none" stroke="#011859" stroke-miterlimit="10" stroke-width=".75" d="M407.94 476.64c.12-.11 7.64-5.46 10.71-2.91s-12.25 7.07-12.25 7.07M339.57 472.25c3.38 3.18 11.5 7.58 13.75 6s2.4-6.36-12.38-7.09"/><path fill="none" stroke="#011859" stroke-miterlimit="10" stroke-width=".75" d="M341.08 473.51s2.54 12.84 6.71 12.5c5.48-.44-.2-8.65-.2-8.65"/><path fill="#9c92dc" d="M471.15 124.01h4.94v4.94h-4.94z"/><path fill="#d0dafd" d="M471.15 138.12h4.94v4.94h-4.94zM471.15 152.23h4.94v4.94h-4.94z"/><path fill="#9c92dc" d="M471.15 166.34h4.94v4.94h-4.94z"/><path fill="#d0dafd" d="M471.15 180.45h4.94v4.94h-4.94zM471.15 194.56h4.94v4.94h-4.94z"/><path fill="none" stroke="#ffc5cb" stroke-miterlimit="10" d="M485.71 124.9h62.28M533.32 131.25h26.93M517.84 131.25h10.43"/><path fill="none" stroke="#6b6ce3" stroke-miterlimit="10" d="M485.71 131.25h24.79"/><path fill="none" stroke="#ffc5cb" stroke-miterlimit="10" d="M503.4 168.52h49.74M485.71 168.52h11.05M533.32 174.87h31.94"/><path fill="none" stroke="#6b6ce3" stroke-miterlimit="10" d="M485.71 174.87h38.86"/><path fill="none" stroke="#ffc5cb" stroke-miterlimit="10" d="M550.18 181.22H556M532.06 181.22h15.29M503.23 181.22h24.32M542.13 187.57h6.07M520.4 187.57h18.64M503.23 187.57h12.75"/><path fill="none" stroke="#6b6ce3" stroke-miterlimit="10" d="M515.18 203.03h9.39M485.71 203.03h24.97"/><path fill="none" stroke="#ffc5cb" stroke-miterlimit="10" d="M527.27 209.38h7.37M501.68 209.38h21.68M485.71 209.38h10.41M517.9 215.73h9.9M485.71 215.73h25.86"/><path fill="none" stroke="#6b6ce3" stroke-miterlimit="10" d="M532.59 142.49h6.64M525.37 142.49h4.69"/><path fill="none" stroke="#ffc5cb" stroke-miterlimit="10" d="M510.11 142.49h12.5M500.85 142.49h5.35M513 148.84h21.8M500.85 148.84h7.57"/><path fill="none" stroke="#6b6ce3" stroke-miterlimit="10" d="M500.85 155.19h25.05"/><path fill="none" stroke="#fff" stroke-miterlimit="10" d="M431.35 124.9h23.56M423.83 132.21h31.08M442.28 139.52h12.63M445.26 146.83h9.65M433.65 154.13h21.26M441.86 161.91h13.05M438.1 176.06h16.81M427.28 176.06h6.88M431.35 183.37h23.56M445.88 190.67h9.03M438.46 197.98h16.45M428 197.98h6.83M436.58 205.29h18.33M425.31 205.29h6.91"/><path fill="none" stroke="#fff" stroke-linecap="round" stroke-linejoin="round" d="m428.44 113.67-3.85-3.32 3.85-3.32M435.88 113.67l3.84-3.32-3.84-3.32"/><path fill="none" stroke="#5559bc" stroke-linecap="round" stroke-linejoin="round" d="m434.2 105.89-4.09 8.92"/><path fill="#6b6ce3" d="m580.6 240 1-2.93a14.93 14.93 0 0 0 3.46-1l2.4 1.95a1.48 1.48 0 0 0 1.86 0l3-2.44a1.48 1.48 0 0 0 .39-1.82l-1.39-2.76a14.93 14.93 0 0 0 1.73-3.16l3.07-.32a1.48 1.48 0 0 0 1.32-1.32l.41-3.86a1.48 1.48 0 0 0-1-1.57l-2.93-1a14.93 14.93 0 0 0-1-3.46l1.95-2.4a1.48 1.48 0 0 0 0-1.86l-2.44-3a1.48 1.48 0 0 0-1.82-.39l-2.79 1.34a14.93 14.93 0 0 0-3.16-1.73l-.32-3.07a1.48 1.48 0 0 0-1.32-1.32l-3.86-.41a1.48 1.48 0 0 0-1.57 1l-1 2.93a14.93 14.93 0 0 0-3.46 1l-2.4-1.95a1.48 1.48 0 0 0-1.86 0l-3 2.44a1.48 1.48 0 0 0-.39 1.82l1.39 2.76a14.93 14.93 0 0 0-1.73 3.16l-3.07.32a1.48 1.48 0 0 0-1.32 1.32l-.41 3.86a1.48 1.48 0 0 0 1 1.57l2.93 1a14.93 14.93 0 0 0 1 3.46l-1.95 2.4a1.48 1.48 0 0 0 0 1.86l2.44 3a1.48 1.48 0 0 0 1.82.39l2.76-1.39a14.93 14.93 0 0 0 3.16 1.73l.32 3.07a1.48 1.48 0 0 0 1.32 1.32l3.86.46a1.48 1.48 0 0 0 1.6-1Zm-9.47-18.6a8 8 0 1 1 7.11 8.82 8 8 0 0 1-7.11-8.82Z"/><path fill="#ffc5cb" d="m557.41 217-.11-1.78a8.63 8.63 0 0 0 1.64-1.29l1.71.53a.86.86 0 0 0 1-.4l1.1-2a.86.86 0 0 0-.18-1.06l-1.34-1.19a8.63 8.63 0 0 0 .25-2.07l1.58-.83a.86.86 0 0 0 .43-1l-.6-2.16a.86.86 0 0 0-.88-.63l-1.78.11a8.63 8.63 0 0 0-1.29-1.64l.53-1.71a.86.86 0 0 0-.4-1l-2-1.1a.86.86 0 0 0-1.06.18l-1.19 1.34a8.63 8.63 0 0 0-2.07-.25l-.83-1.58a.86.86 0 0 0-1-.43l-2.16.6a.86.86 0 0 0-.63.88l.11 1.78a8.63 8.63 0 0 0-1.64 1.29l-1.71-.53a.86.86 0 0 0-1 .4l-1.1 2a.86.86 0 0 0 .18 1.06l1.34 1.19a8.63 8.63 0 0 0-.25 2.07l-1.58.83a.86.86 0 0 0-.43 1l.6 2.16a.86.86 0 0 0 .88.63l1.78-.11a8.63 8.63 0 0 0 1.29 1.64l-.53 1.71a.86.86 0 0 0 .4 1l2 1.1a.86.86 0 0 0 1.06-.18l1.19-1.34a8.63 8.63 0 0 0 2.07.25l.83 1.58a.86.86 0 0 0 1 .43l2.16-.6a.86.86 0 0 0 .63-.88Zm-9.06-8a4.63 4.63 0 1 1 5.7 3.21 4.63 4.63 0 0 1-5.71-3.21Z"/><path fill="none" stroke="#ffc5cb" stroke-miterlimit="10" stroke-width="2" d="M229.58 135.25v-2.5"/><path fill="none" stroke="#ffc5cb" stroke-dasharray="5.15 5.15" stroke-miterlimit="10" stroke-width="2" d="M229.58 127.6v-7.72"/><path fill="none" stroke="#ffc5cb" stroke-miterlimit="10" stroke-width="2" d="M229.58 117.31v-2.5h2.5"/><path fill="none" stroke="#ffc5cb" stroke-dasharray="4.89 4.89" stroke-miterlimit="10" stroke-width="2" d="M236.98 114.81h154.17"/><path fill="none" stroke="#ffc5cb" stroke-miterlimit="10" stroke-width="2" d="M393.59 114.81h2.5"/><rect width="6.72" height="105.18" x="208.55" y="223.83" fill="#d0dafd" stroke="#9c92dc" stroke-miterlimit="10" rx="3.36" ry="3.36"/><rect width="6.72" height="105.18" x="227.36" y="223.83" fill="#d0dafd" stroke="#9c92dc" stroke-miterlimit="10" rx="3.36" ry="3.36"/><rect width="107.23" height="5.34" x="167.7" y="411.29" fill="#d0dafd" stroke="#9c92dc" stroke-miterlimit="10" rx="2.67" ry="2.67"/><path fill="#9c92dc" d="M157.19 250.92h29.24v51h-29.24z"/><path fill="#d0dafd" d="M250.75 227.48h40.14V238h-40.14zM250.75 314.84h40.14v10.52h-40.14z"/><path fill="none" stroke="#9c92dc" stroke-miterlimit="10" d="M250.75 227.48h40.14v97.87h-40.14z"/><circle cx="263.32" cy="252.25" r="4.59" fill="#d0dafd"/><circle cx="278.32" cy="252.25" r="4.59" fill="#d0dafd"/><path fill="#9c92dc" d="M257.26 263.29h10.33v8.65h-10.33zM274.04 263.29h10.33v8.65h-10.33zM257.26 279.88h10.33v8.65h-10.33zM274.04 279.88h10.33v8.65h-10.33z"/><path fill="none" stroke="#011859" stroke-miterlimit="10" stroke-width=".75" d="M394.55 271.32V243.58M387.99 251.29v19.18"/><path fill="none" stroke="#fff" stroke-miterlimit="10" d="M326.76 281.65c2.81 1.38 8.11 6.43 4.59 19.74M382.87 385.17l9.38 31.46M350.92 414.21l7.28 23.58M413.87 385.17c4.22-9.18 6.49-18 5.93-26.48"/><path fill="none" stroke="#011859" stroke-miterlimit="10" stroke-width=".75" d="M419.79 358.69a35.84 35.84 0 0 0-5.93-17.5"/><path fill="none" stroke="#fff" stroke-miterlimit="10" d="M380.63 361.8a14.35 14.35 0 0 1 2.23 12.76"/><path fill="none" stroke="#011859" stroke-miterlimit="10" stroke-width=".75" d="M328.33 354a169.3 169.3 0 0 0 11.18 23.61"/><path fill="none" stroke="#fff" stroke-miterlimit="10" d="M339.51 377.62c5.13 9.15 9.58 15.66 9.58 15.66"/><path fill="none" stroke="#011859" stroke-miterlimit="10" stroke-width=".75" d="m331.24 187.74 7.01 6.98 3.79-5.34M322.16 184.83a21.46 21.46 0 0 0 4.14-2.36M344.24 186.14s4.58.39 5.42.89"/><path fill="#ff9d9c" d="M427.48 309.34c-8.64 0-11.58-3.36-10.58-5.06s4.15-1.79 4.15-1.79c-3.21-2.11-1.61-6.34 3-5.33-2.95-1.56-2.57-8.4 3.39-6.49-3-1.21-2.86-4.46 1.35-5.12 4.86-.77 12.61.21 13.71 1.52s-1.1 3.71-3 3.61c0 0 .93 4-.93 5.31s-2.83 1.35-2.52 3.21-1.88 4.26-4.25 5.09.36 5.04-4.32 5.05Z"/><path fill="none" stroke="#011859" stroke-miterlimit="10" stroke-width=".75" d="M429.77 290.42c4.22.7 6.86 1.11 6.86 1.11M428.13 296.9a18.74 18.74 0 0 0 5.07 1.32M424.3 302.55a40 40 0 0 0 5 .7M325.46 218.36s-.1-2.89 1.29-4.48M339.21 263.29c7.14 2.59 16.52 2.36 16.52 2.36M344.24 251.29c8.86 1.2 19-2.22 19-2.22M378.37 226.3c4.87 5.23 8.64 9.25 8.64 9.25M307 260.88s13.18.05 19.12-1.54M348.93 208.76l1.41 3.89"/><path fill="none" stroke="#fff" stroke-miterlimit="10" stroke-width=".75" d="m367.55 468.23 35.36-16.53"/><path fill="none" stroke="#011859" stroke-miterlimit="10" stroke-width=".75" d="m402.91 451.7 5.06-2.37"/><path fill="none" stroke="#fff" stroke-miterlimit="10" stroke-width=".75" d="m333.54 427.28 26.72 31.86"/><path fill="none" stroke="#011859" stroke-miterlimit="10" stroke-width=".75" d="m329.08 421.96 4.46 5.32M372.1 494.37l59.27-.84M311.38 445.37l28.13 46.61"/><circle cx="617.1" cy="367.42" r="3.08" fill="#6b6ce3"/><circle cx="467.83" cy="391.94" r="3.08" fill="#6b6ce3"/><circle cx="521.39" cy="313.59" r="3.08" fill="#ff9d9c"/><circle cx="638.39" cy="175.65" r="3.08" fill="#ff9d9c"/><circle cx="229.58" cy="135.25" r="3.08" fill="#ff9d9c"/><path fill="#6b6ce3" d="M594.55 142.54h7.06v16.74h-7.06z"/><rect width="30.32" height="5.81" x="582.92" y="157.59" fill="#ffc5cb" rx="2.64" ry="2.64"/><rect width="66.55" height="41.7" x="564.81" y="109.48" fill="#ffc5cb" rx="5.15" ry="5.15"/><rect width="55.7" height="33.71" x="570.23" y="113.47" fill="#ff9d9c" rx="5.15" ry="5.15"/><rect width="28.77" height="64.75" x="636.17" y="98.65" fill="#ffc5cb" rx="4.17" ry="4.17"/><path fill="#fff" d="M641.3 108.1h18.51v7.89H641.3z"/><circle cx="650.55" cy="130.33" r="3.19" fill="#6b6ce3"/><rect width="19.07" height="19.07" x="641.01" y="139.21" fill="#ff9d9c" rx="2.91" ry="2.91"/><circle cx="605.41" cy="265.58" r="3.08" fill="#6b6ce3"/><path fill="none" stroke="#fff" stroke-miterlimit="10" stroke-width=".75" d="M320.59 220v-3.28l-2.85-1.65-2.85 1.65V220l2.85 1.65 2.85-1.65zM334.33 257v-3.29l-2.85-1.64-2.85 1.64V257l2.85 1.64 2.85-1.64zM375.98 267.01v-3.29l-2.85-1.64-2.84 1.64v3.29l2.84 1.65 2.85-1.65zM325.26 242.03v-3.29l-2.85-1.65-2.85 1.65v3.29l2.85 1.64 2.85-1.64zM355.95 257.7v-3.29l-2.85-1.65-2.85 1.65v3.29l2.85 1.64 2.85-1.64zM312.68 229.93v-3.29l-2.85-1.64-2.84 1.64v3.29l2.84 1.65 2.85-1.65z"/><path fill="none" stroke="#011859" stroke-miterlimit="10" stroke-width=".75" d="M441.86 239c11.08 3.7 25 14.48 29.29 19.69s10.45 1.17 11.06-1.81M339.21 225c12-9.63 40.05-22.94 61.51-22.81M448.5 262.08c9.5 12.48 14.33 16.92 12.5 22.71M370.67 280.91c7.79-4.42 19.78-8.87 34.2-5.91M396.87 292c7.29-.5 15.71 2.36 18 3.93M384.75 332.4c4.65 6 29.32 2.93 27-14.49"/></svg>